<svg xmlns="http://www.w3.org/2000/svg" xml:space="preserve" viewBox="0 0 100 103">
  <path fill="#620174" d="M56.04 2.83c-.58-.05-4.78-.09-5.36-.11l.15 8.17c.58.02 3.82.14 4.4.19A38.13 38.13 0 0 1 88 37.92l6.36-6.78A46.42 46.42 0 0 0 56.04 2.83ZM15.55 19.7A46.42 46.42 0 0 0 5.32 44.5c-1.1 11.35 1.86 18.7 5.56 24.6l6.75-2.09c-3.23-8.18-4.99-12.15-4.06-21.7a38.13 38.13 0 0 1 9.37-21.48ZM85 66.07c-7.09 14.85-23.8 22.21-37.19 20.92-.99-.1-1.98-.25-2.96-.43l1.18 8.56.98.12C63 96.78 83.5 87.85 91.46 70.32z"/>
  <path fill="#620174" d="m7.83 17.47 23.05-5.3-6.96 22.45Zm92.87 9.48-22.88 5.22 15.7 17.02Zm-70.42 58.4 22.78-5.3-6.92 22.22z"/>
  <path fill="#b203a0" d="m11.28 21.14 19.6-8.98-10.6 18.56.23-9.04Zm84.55 6.93L93.52 49.2l-9.93-18.34 7.3 4.57zM47.69 97.3l-17.4-11.95 21.32-.71-8.03 4.74Z"/>
</svg>
